<svg width="20" height="20" viewBox="0 0 20 20" fill="none" xmlns="http://www.w3.org/2000/svg">
<mask id="mask0_866_797" style="mask-type:alpha" maskUnits="userSpaceOnUse" x="0" y="0" width="20" height="20">
<rect width="20" height="20" fill="#D9D9D9"/>
</mask>
<g mask="url(#mask0_866_797)">
<path fill-rule="evenodd" clip-rule="evenodd" d="M7.5 3.25C7.03587 3.25 6.59075 3.43437 6.26256 3.76256C5.93437 4.09075 5.75 4.53587 5.75 5C5.75 5.46413 5.93437 5.90925 6.26256 6.23744C6.59075 6.56563 7.03587 6.75 7.5 6.75H9.25V3.25H7.5ZM5.2019 2.7019C5.8114 2.09241 6.63805 1.75 7.5 1.75H10C10.4142 1.75 10.75 2.08579 10.75 2.5V7.5C10.75 7.91422 10.4142 8.25 10 8.25H7.5C6.63805 8.25 5.8114 7.90759 5.2019 7.2981C4.59241 6.68861 4.25 5.86196 4.25 5C4.25 4.13805 4.59241 3.3114 5.2019 2.7019Z" fill="white"/>
<path fill-rule="evenodd" clip-rule="evenodd" d="M9.25195 2.5C9.25195 2.08579 9.58774 1.75 10.002 1.75H12.502C12.9288 1.75 13.3514 1.83406 13.7457 1.99739C14.14 2.16072 14.4983 2.40011 14.8001 2.7019C15.1018 3.00369 15.3412 3.36197 15.5046 3.75628C15.6679 4.15059 15.752 4.5732 15.752 5C15.752 5.4268 15.6679 5.84942 15.5046 6.24372C15.3412 6.63803 15.1018 6.99631 14.8001 7.2981C14.4983 7.59989 14.14 7.83928 13.7457 8.00261C13.3514 8.16594 12.9288 8.25 12.502 8.25H10.002C9.58774 8.25 9.25195 7.91422 9.25195 7.5V2.5ZM10.752 3.25V6.75H12.502C12.7318 6.75 12.9593 6.70474 13.1717 6.61679C13.384 6.52885 13.5769 6.39994 13.7394 6.23744C13.9019 6.07494 14.0308 5.88202 14.1187 5.6697C14.2067 5.45738 14.252 5.22981 14.252 5C14.252 4.77019 14.2067 4.54262 14.1187 4.3303C14.0308 4.11798 13.9019 3.92507 13.7394 3.76256C13.5769 3.60006 13.384 3.47116 13.1717 3.38321C12.9593 3.29527 12.7318 3.25 12.502 3.25H10.752Z" fill="white"/>
<path fill-rule="evenodd" clip-rule="evenodd" d="M12.502 8.25C12.2721 8.25 12.0446 8.29527 11.8323 8.38321C11.6199 8.47116 11.427 8.60006 11.2645 8.76256C11.102 8.92507 10.9731 9.11799 10.8852 9.3303C10.7972 9.54262 10.752 9.77019 10.752 10C10.752 10.2298 10.7972 10.4574 10.8852 10.6697C10.9731 10.882 11.102 11.0749 11.2645 11.2374C11.427 11.3999 11.6199 11.5288 11.8323 11.6168C12.0446 11.7047 12.2721 11.75 12.502 11.75C12.7318 11.75 12.9593 11.7047 13.1717 11.6168C13.384 11.5288 13.5769 11.3999 13.7394 11.2374C13.9019 11.0749 14.0308 10.882 14.1187 10.6697C14.2067 10.4574 14.252 10.2298 14.252 10C14.252 9.77019 14.2067 9.54263 14.1187 9.3303C14.0308 9.11798 13.9019 8.92507 13.7394 8.76256C13.5769 8.60006 13.384 8.47116 13.1717 8.38321C12.9593 8.29527 12.7318 8.25 12.502 8.25ZM11.2582 6.99739C11.6525 6.83406 12.0752 6.75 12.502 6.75C12.9288 6.75 13.3514 6.83406 13.7457 6.99739C14.14 7.16072 14.4983 7.40011 14.8001 7.7019C15.1018 8.00369 15.3412 8.36197 15.5046 8.75628C15.6679 9.15059 15.752 9.5732 15.752 10C15.752 10.4268 15.6679 10.8494 15.5046 11.2437C15.3412 11.638 15.1018 11.9963 14.8001 12.2981C14.4983 12.5999 14.14 12.8393 13.7457 13.0026C13.3514 13.1659 12.9288 13.25 12.502 13.25C12.0752 13.25 11.6525 13.1659 11.2582 13.0026C10.8639 12.8393 10.5056 12.5999 10.2039 12.2981C9.90207 11.9963 9.66267 11.638 9.49934 11.2437C9.33602 10.8494 9.25195 10.4268 9.25195 10C9.25195 9.57321 9.33602 9.15059 9.49934 8.75628C9.66267 8.36197 9.90207 8.00369 10.2039 7.7019C10.5056 7.40011 10.8639 7.16072 11.2582 6.99739Z" fill="white"/>
<path fill-rule="evenodd" clip-rule="evenodd" d="M7.5 13.25C7.03587 13.25 6.59075 13.4344 6.26256 13.7626C5.93437 14.0908 5.75 14.5359 5.75 15C5.75 15.4641 5.93437 15.9093 6.26256 16.2374C6.59075 16.5656 7.03587 16.75 7.5 16.75C7.96413 16.75 8.40925 16.5656 8.73744 16.2374C9.06563 15.9093 9.25 15.4641 9.25 15V13.25H7.5ZM5.2019 12.7019C5.8114 12.0924 6.63805 11.75 7.5 11.75H10C10.4142 11.75 10.75 12.0858 10.75 12.5V15C10.75 15.862 10.4076 16.6886 9.7981 17.2981C9.18861 17.9076 8.36195 18.25 7.5 18.25C6.63805 18.25 5.8114 17.9076 5.2019 17.2981C4.59241 16.6886 4.25 15.862 4.25 15C4.25 14.138 4.59241 13.3114 5.2019 12.7019Z" fill="white"/>
<path fill-rule="evenodd" clip-rule="evenodd" d="M7.5 8.25C7.03587 8.25 6.59075 8.43437 6.26256 8.76256C5.93437 9.09075 5.75 9.53587 5.75 10C5.75 10.4641 5.93437 10.9092 6.26256 11.2374C6.59075 11.5656 7.03587 11.75 7.5 11.75H9.25V8.25H7.5ZM5.2019 7.7019C5.8114 7.09241 6.63805 6.75 7.5 6.75H10C10.4142 6.75 10.75 7.08579 10.75 7.5V12.5C10.75 12.9142 10.4142 13.25 10 13.25H7.5C6.63805 13.25 5.8114 12.9076 5.2019 12.2981C4.59241 11.6886 4.25 10.862 4.25 10C4.25 9.13805 4.59241 8.3114 5.2019 7.7019Z" fill="white"/>
</g>
</svg>
