<svg width="26" height="27" viewBox="0 0 26 27" fill="none" xmlns="http://www.w3.org/2000/svg">
<path d="M10.235 12.4806H8.51562V10.854H10.0757C11.719 10.854 11.516 12.4806 10.235 12.4806ZM15.3004 13.4064H17.5964C17.4958 11.9302 15.5314 11.8226 15.3004 13.4064ZM10.1379 13.7529H8.51562V15.4565H10.1116C11.6709 15.4556 11.5755 13.7529 10.1379 13.7529ZM23.5 13.5C23.5 19.2986 18.7986 24 13 24C7.20138 24 2.5 19.2986 2.5 13.5C2.5 7.70138 7.20138 3 13 3C18.7986 3 23.5 7.70138 23.5 13.5V13.5ZM11.8126 12.8586C13.2721 12.1123 13.2187 9.37525 10.424 9.33412H6.875V16.9729H10.1746C13.6379 16.9729 13.5792 13.5018 11.8126 12.8586ZM14.75 10.0884H18.25V9.32275H14.75V10.0884ZM19.0751 13.3197C18.5983 10.2529 13.7788 10.0726 13.7788 14.0828C13.7788 18.043 18.3113 17.4235 18.9841 15.4477H17.3671C16.8027 16.1022 15.1726 15.9124 15.2636 14.4117H19.1224C19.1302 13.9261 19.1145 13.5779 19.0751 13.3197V13.3197Z" fill="white"/>
</svg>
