<svg width="26" height="27" viewBox="0 0 26 27" fill="none" xmlns="http://www.w3.org/2000/svg">
<path d="M13 3C7.2005 3 2.5 7.70138 2.5 13.5C2.5 19.2986 7.2005 24 13 24C18.7995 24 23.5 19.2986 23.5 13.5C23.5 7.70138 18.7995 3 13 3ZM21.6494 13.0109C19.3963 12.6416 17.3242 12.6215 15.4342 12.947C15.2207 12.4544 14.9994 11.9626 14.7631 11.477C16.7844 10.602 18.4075 9.41375 19.6176 7.90525C20.7989 9.3 21.54 11.0719 21.6494 13.0109ZM18.2876 6.63912C17.2332 7.99887 15.7781 9.07425 13.9249 9.85913C13.0359 8.23075 12.0191 6.64262 10.8729 5.10088C11.5545 4.9285 12.265 4.82612 13 4.82612C14.9906 4.82612 16.822 5.50775 18.2876 6.63912ZM9.08612 5.77025C10.2507 7.2945 11.2833 8.866 12.181 10.4786C10.0548 11.1042 7.51638 11.4254 4.5825 11.4455C5.188 8.96488 6.85837 6.90162 9.08612 5.77025V5.77025ZM4.32612 13.5L4.3375 13.276C7.70537 13.2716 10.6104 12.884 13.0438 12.1192C13.2476 12.5349 13.4428 12.9523 13.63 13.3723C10.6725 14.2971 8.23562 16.1915 6.33512 19.0422C5.08212 17.5381 4.32612 15.6061 4.32612 13.5V13.5ZM7.6765 20.3337C9.39937 17.6317 11.5983 15.873 14.3247 15.0601C15.1367 17.1776 15.7326 19.3564 16.1124 21.5876C13.182 22.7173 10.0285 22.1704 7.6765 20.3337ZM17.8143 20.71C17.431 18.6511 16.8692 16.6386 16.1342 14.6751C17.7757 14.4433 19.5818 14.5036 21.5584 14.8466C21.176 17.2844 19.7839 19.3896 17.8143 20.71Z" fill="white"/>
</svg>
