<svg width="26" height="27" viewBox="0 0 26 27" fill="none" xmlns="http://www.w3.org/2000/svg">
<path fill-rule="evenodd" clip-rule="evenodd" d="M13.0004 23.9992C18.8013 23.9992 23.5 19.3005 23.5 13.4996H23.4992C23.4992 7.69875 18.8005 3 12.9996 3C7.19875 3 2.5 7.69795 2.5 13.4996C2.5 19.3013 7.19955 23.9992 13.0004 23.9992ZM11.4284 13.5H14.4036V13.5096C15.2705 13.5096 15.9792 12.801 15.9792 11.934C15.9792 11.067 15.2697 10.3584 14.4036 10.3584H11.4284V13.5ZM9.32812 8.25977H14.4036C16.4334 8.25977 18.0786 9.90493 18.0786 11.9348C18.0786 13.9646 16.4334 15.6098 14.4036 15.6098H11.4284V18.7594H9.32812V8.25977Z" fill="white"/>
</svg>
