<svg width="26" height="27" viewBox="0 0 26 27" fill="none" xmlns="http://www.w3.org/2000/svg">
<path d="M24 6.98717C23.2274 7.33017 22.397 7.56117 21.5255 7.6653C22.4154 7.13242 23.0987 6.28805 23.4199 5.2818C22.5877 5.7753 21.6655 6.13405 20.6837 6.32742C19.8989 5.49005 18.778 4.9668 17.539 4.9668C14.7574 4.9668 12.7134 7.56205 13.3416 10.2562C9.762 10.0768 6.5875 8.3618 4.46213 5.75517C3.33338 7.69155 3.87675 10.2247 5.79475 11.5074C5.0895 11.4847 4.4245 11.2913 3.84437 10.9684C3.79712 12.9643 5.22775 14.8315 7.29975 15.2472C6.69338 15.4117 6.02925 15.4502 5.35375 15.3207C5.9015 17.0322 7.49225 18.2773 9.37875 18.3123C7.5675 19.7324 5.2855 20.3668 3 20.0973C4.90662 21.3197 7.172 22.0328 9.6045 22.0328C17.6038 22.0328 22.1231 15.2769 21.8501 9.21755C22.6919 8.60942 23.4225 7.8508 24 6.98717V6.98717Z" fill="white"/>
</svg>
